<?xml version="1.0" standalone="no"?>
<!DOCTYPE svg PUBLIC "-//W3C//DTD SVG 20010904//EN"
 "http://www.w3.org/TR/2001/REC-SVG-20010904/DTD/svg10.dtd">
<svg version="1.0" xmlns="http://www.w3.org/2000/svg"
 width="500.000000pt" height="500.000000pt" viewBox="0 0 500.000000 500.000000"
 preserveAspectRatio="xMidYMid meet">

<g transform="translate(0.000000,500.000000) scale(0.100000,-0.100000)"
fill="#ffffff" stroke="none">
<path d="M1292 4119 c-63 -11 -191 -60 -236 -91 -72 -50 -129 -118 -182 -219
-45 -87 -44 -70 -44 -1316 0 -1332 -5 -1231 78 -1371 71 -118 176 -197 320
-242 66 -21 77 -21 1248 -20 1158 1 1183 1 1255 21 41 11 99 34 129 52 77 43
171 142 209 218 63 130 62 90 59 1382 l-3 1172 -27 68 c-67 166 -193 278 -375
334 -54 16 -141 17 -1218 19 -654 1 -1183 -2 -1213 -7z m338 -437 c5 -262 5
-264 29 -283 34 -28 87 -25 116 7 24 26 25 31 25 190 l0 164 85 0 85 0 0 -72
c0 -92 13 -108 86 -108 45 0 56 4 73 26 19 24 21 40 21 185 l0 159 420 0 420
0 0 -90 c0 -73 3 -90 15 -91 8 -1 20 -3 25 -4 6 -1 37 -3 70 -4 l60 -1 0 -162
c0 -227 -31 -208 326 -208 354 0 328 -13 332 162 3 112 1 127 -20 168 -35 68
-70 82 -195 78 -67 -2 -107 -7 -115 -16 -8 -8 -15 -52 -18 -119 -5 -95 -8
-107 -29 -124 -31 -26 -57 -24 -87 6 l-24 25 2 187 3 188 175 0 175 0 66 -31
c74 -36 139 -97 172 -164 20 -41 23 -64 28 -275 3 -126 4 -233 2 -237 -2 -5
-174 -8 -381 -8 -426 0 -422 1 -422 -68 1 -67 46 -102 134 -102 l55 0 35 -71
c20 -40 36 -78 36 -85 0 -11 35 -14 185 -14 l185 0 0 85 0 85 85 0 85 0 0
-460 0 -460 -180 0 -181 0 3 -87 3 -88 93 -3 92 -3 0 -84 0 -84 83 -3 82 -3 0
-250 c0 -241 -1 -252 -23 -297 -37 -74 -96 -134 -170 -170 l-66 -33 -176 0
-175 0 -5 185 c-3 102 -9 191 -13 198 -6 9 -51 12 -168 12 l-159 0 0 -200 0
-200 -335 0 -335 0 -1 28 c-1 15 -2 65 -3 112 l-1 85 -257 3 -258 2 0 175 c0
162 -2 177 -20 195 -19 19 -33 20 -308 20 -233 0 -292 -3 -308 -14 -17 -13
-19 -28 -19 -178 0 -152 1 -165 23 -200 35 -56 90 -78 195 -78 122 0 127 6
127 150 0 106 1 112 26 136 29 30 67 27 97 -8 16 -19 17 -42 15 -222 l-3 -201
-154 -3 c-216 -4 -284 18 -379 122 -83 90 -87 107 -87 386 l0 245 395 3 c435
2 420 0 420 64 0 69 -56 108 -156 108 -64 0 -66 1 -51 18 22 25 22 30 -13 127
-43 123 -63 281 -58 445 7 174 -9 210 -92 210 -78 0 -97 -73 -87 -334 6 -156
31 -289 76 -403 11 -28 17 -54 14 -57 -4 -3 -64 -6 -135 -6 l-128 0 0 550 0
550 210 0 210 0 0 -28 c0 -29 29 -63 63 -75 28 -10 84 18 101 50 16 31 109
123 171 170 22 16 83 50 136 75 108 51 127 75 108 142 -12 43 -51 58 -114 44
-54 -12 -211 -100 -285 -159 l-60 -49 -366 0 -365 0 3 233 c3 231 3 232 31
289 18 37 47 73 80 101 102 87 138 96 347 94 l165 -2 5 -263z"/>
<path d="M1250 3790 c-19 -5 -49 -24 -66 -43 -38 -41 -48 -97 -43 -232 5 -121
11 -125 176 -125 118 0 125 1 148 25 24 24 25 28 25 180 0 152 -1 156 -25 180
-22 23 -32 25 -102 24 -43 -1 -94 -5 -113 -9z"/>
<path d="M2490 3771 c-6 -11 -10 -88 -10 -179 l0 -159 83 -7 c143 -12 247 -40
415 -113 17 -7 17 248 0 265 -8 8 -59 12 -165 12 l-153 0 0 81 c0 113 -5 119
-90 119 -58 0 -71 -3 -80 -19z"/>
<path d="M2503 3245 c-18 -12 -23 -26 -23 -59 0 -64 21 -83 104 -96 38 -6 105
-25 148 -42 69 -27 92 -44 183 -130 96 -90 108 -98 144 -98 31 0 44 6 60 26
12 15 21 37 21 49 0 53 -138 193 -267 271 -119 72 -321 115 -370 79z"/>
<path d="M2025 3109 c-306 -230 -393 -645 -203 -968 18 -30 67 -90 108 -132
119 -121 261 -194 425 -219 l79 -12 28 31 c36 40 38 92 5 125 -17 17 -40 25
-85 30 -96 11 -155 32 -236 87 -91 61 -147 122 -192 211 -86 171 -85 338 3
518 29 59 56 94 131 168 89 87 94 94 88 125 -13 70 -83 87 -151 36z"/>
<path d="M2359 2907 c-284 -97 -373 -423 -178 -650 107 -124 313 -163 475 -88
89 41 143 95 186 186 31 65 33 77 33 176 0 101 -1 108 -37 181 -87 175 -292
259 -479 195z m221 -162 c52 -27 93 -69 116 -120 36 -76 29 -167 -14 -202 -9
-8 -11 -12 -4 -8 6 3 12 1 12 -6 0 -7 -8 -9 -21 -6 -16 4 -19 3 -11 -5 9 -9 3
-19 -21 -41 -53 -48 -87 -61 -157 -60 -184 1 -296 181 -212 343 31 62 55 82
132 110 60 22 131 20 180 -5z"/>
<path d="M3383 2720 c-35 -14 -40 -37 -45 -195 -6 -175 -26 -252 -105 -399
-69 -129 -199 -255 -333 -322 -90 -45 -192 -75 -288 -83 -139 -12 -132 3 -132
-272 0 -194 2 -230 16 -243 22 -23 127 -22 145 0 10 12 15 63 19 182 l5 166
71 12 c242 40 520 247 652 484 60 108 122 322 122 424 l0 36 119 0 c66 0 126
3 135 6 13 5 16 25 16 110 l0 104 -187 -1 c-104 0 -198 -4 -210 -9z"/>
<path d="M3088 2514 c-16 -8 -30 -26 -33 -42 -20 -98 -49 -190 -71 -228 -35
-60 -140 -166 -202 -204 -77 -47 -90 -112 -30 -154 38 -27 69 -19 155 40 163
110 292 315 310 491 5 48 3 54 -25 82 -33 34 -62 38 -104 15z"/>
<path d="M1982 1678 c-8 -8 -12 -50 -12 -125 0 -101 2 -113 19 -123 30 -15
113 -12 139 6 20 14 22 23 22 112 0 129 -8 142 -94 142 -35 0 -67 -5 -74 -12z"/>
<path d="M3492 1574 c-21 -15 -22 -21 -22 -189 0 -211 -4 -205 133 -205 175 0
217 49 217 252 0 102 -1 110 -25 133 -23 24 -30 25 -152 25 -100 0 -133 -3
-151 -16z"/>
</g>
</svg>
